<?xml version="1.0" encoding="utf-8"?>
<!-- Generator: Adobe Illustrator 25.0.0, SVG Export Plug-In . SVG Version: 6.00 Build 0)  -->
<svg version="1.1" id="Layer_1" xmlns="http://www.w3.org/2000/svg" xmlns:xlink="http://www.w3.org/1999/xlink" x="0px" y="0px"
	 viewBox="0 0 32 32" style="enable-background:new 0 0 32 32;" xml:space="preserve">
<style type="text/css">
	.st0{fill:#555555;}
</style>
<g>
	<path class="st0" d="M14.66,2.94l14.87,14.88L17.88,29.47L3,14.58L3.7,3.76l0.01-0.1l0-0.02l0.02,0l0.1-0.01L14.66,2.94
		 M10.39,13.94c1.1,0,2.14-0.43,2.91-1.21c0.78-0.78,1.21-1.81,1.21-2.91c0-1.1-0.43-2.13-1.21-2.91c-0.78-0.78-1.81-1.21-2.91-1.21
		c-1.1,0-2.14,0.43-2.91,1.21c-1.6,1.6-1.6,4.21,0,5.82C8.25,13.51,9.28,13.94,10.39,13.94 M14.74,0.93L3.69,1.64
		c-0.02,0-0.04,0-0.06,0c-1.08,0-1.96,0.9-1.93,1.99L0.99,14.67c0.02,0.49,0.22,0.97,0.57,1.32l14.94,14.94
		c0.38,0.38,0.87,0.57,1.37,0.57c0.49,0,0.99-0.19,1.37-0.57l11.75-11.75c0.76-0.76,0.76-1.99,0-2.74L16.05,1.49
		C15.69,1.15,15.23,0.94,14.74,0.93L14.74,0.93z M10.39,11.94c-0.54,0-1.09-0.21-1.5-0.62c-0.83-0.83-0.83-2.16,0-2.99
		c0.41-0.41,0.96-0.62,1.5-0.62c0.54,0,1.09,0.21,1.5,0.62c0.83,0.83,0.83,2.16,0,2.99C11.47,11.73,10.93,11.94,10.39,11.94
		L10.39,11.94z"/>
</g>
</svg>
